<svg width="48" height="49" viewBox="0 0 48 49" fill="none" xmlns="http://www.w3.org/2000/svg">
<path d="M24.0002 0.460205C19.2891 0.460205 14.6837 1.85722 10.7665 4.4746C6.84932 7.09197 3.79625 10.8122 1.99337 15.1647C0.190497 19.5173 -0.281219 24.3067 0.637881 28.9273C1.55698 33.5479 3.82561 37.7922 7.1569 41.1235C10.4882 44.4548 14.7325 46.7235 19.3532 47.6426C23.9738 48.5617 28.7632 48.0899 33.1157 46.2871C37.4683 44.4842 41.1884 41.4311 43.8058 37.5139C46.4232 33.5968 47.8202 28.9914 47.8202 24.2803C47.8139 17.9647 45.3022 11.9097 40.8365 7.44394C36.3707 2.9782 30.3157 0.466558 24.0002 0.460205ZM24.0002 45.1003C19.8824 45.1003 15.8571 43.8791 12.4332 41.5914C9.00938 39.3036 6.34083 36.0521 4.76501 32.2477C3.1892 28.4434 2.77689 24.2572 3.58023 20.2185C4.38358 16.1798 6.36649 12.47 9.27822 9.55824C12.19 6.64651 15.8997 4.6636 19.9384 3.86025C23.9771 3.05691 28.1633 3.46922 31.9677 5.04503C35.772 6.62085 39.0237 9.2894 41.3114 12.7133C43.5991 16.1371 44.8202 20.1624 44.8202 24.2803C44.8139 29.8001 42.6183 35.0921 38.7152 38.9952C34.812 42.8983 29.5201 45.0939 24.0002 45.1003Z" fill="black"/>
<path d="M33.8761 15.2081C32.1241 15.4841 30.3721 15.6761 28.6081 15.8081C29.292 14.8705 29.6617 13.7406 29.6641 12.5801C29.699 11.8279 29.5811 11.0765 29.3173 10.3712C29.0535 9.66601 28.6495 9.02158 28.1296 8.47694C27.6097 7.93231 26.9847 7.49878 26.2924 7.20258C25.6002 6.90638 24.855 6.75366 24.1021 6.75366C23.3491 6.75366 22.604 6.90638 21.9117 7.20258C21.2195 7.49878 20.5945 7.93231 20.0746 8.47694C19.5547 9.02158 19.1506 9.66601 18.8868 10.3712C18.6231 11.0765 18.5051 11.8279 18.5401 12.5801C18.5424 13.7406 18.9121 14.8705 19.5961 15.8081C17.8321 15.6761 16.0681 15.4841 14.3161 15.2081C13.5951 15.0679 12.8485 15.1517 12.1765 15.4481C11.5045 15.7445 10.9392 16.2394 10.5565 16.8663C10.1738 17.4932 9.9921 18.2221 10.0356 18.9553C10.0791 19.6885 10.3459 20.3908 10.8001 20.968C11.0815 21.3606 11.4389 21.6925 11.8513 21.944C12.2636 22.1955 12.7223 22.3615 13.2001 22.432C15.2041 22.756 17.2801 22.9841 19.3921 23.1281V24.9881L13.2001 34.7201C12.9401 35.1258 12.7625 35.5789 12.6776 36.0533C12.5926 36.5277 12.602 37.0141 12.705 37.4849C12.9132 38.4357 13.4906 39.2649 14.3101 39.79C15.1296 40.3152 16.1242 40.4932 17.075 40.2851C17.5458 40.182 17.9916 39.9872 18.3871 39.7118C18.7827 39.4364 19.1201 39.0858 19.3801 38.68L24.0001 31.336L28.6441 38.68C28.9019 39.089 29.2382 39.4428 29.6335 39.7211C30.0289 39.9994 30.4754 40.1965 30.9474 40.3013C31.4194 40.406 31.9074 40.4161 32.3833 40.3312C32.8593 40.2462 33.3136 40.0678 33.7202 39.8063C34.1268 39.5447 34.4776 39.2052 34.7522 38.8074C35.0268 38.4095 35.2199 37.9612 35.3203 37.4883C35.4208 37.0153 35.4265 36.5272 35.3372 36.0521C35.2479 35.577 35.0653 35.1242 34.8001 34.7201L28.8001 25.276V23.0801C30.9121 22.9361 32.9881 22.7081 34.9921 22.3841C35.9469 22.2249 36.7993 21.693 37.3619 20.9054C37.9245 20.1177 38.1512 19.1388 37.9921 18.1841C37.8329 17.2293 37.301 16.3768 36.5134 15.8142C35.7257 15.2516 34.7469 15.0249 33.7921 15.1841L33.8761 15.2081ZM24.0961 10.0121C24.6068 9.99776 25.1102 10.1361 25.5419 10.4094C25.9735 10.6827 26.3139 11.0786 26.5193 11.5464C26.7248 12.0142 26.786 12.5327 26.6952 13.0354C26.6044 13.5382 26.3657 14.0025 26.0096 14.3689C25.6534 14.7353 25.1961 14.9871 24.6961 15.0922C24.1961 15.1972 23.6761 15.1507 23.2027 14.9587C22.7292 14.7666 22.3239 14.4377 22.0384 14.014C21.7529 13.5902 21.6003 13.091 21.6001 12.5801C21.5998 11.9113 21.8605 11.2688 22.3266 10.7892C22.7927 10.3096 23.4276 10.0308 24.0961 10.0121ZM34.5601 19.4801C32.1432 19.8592 29.7077 20.1076 27.2641 20.2241C26.8789 20.2426 26.5156 20.4087 26.2497 20.6881C25.9837 20.9674 25.8356 21.3384 25.8361 21.7241V25.7201C25.838 26.0054 25.9212 26.2843 26.0761 26.5241L32.2921 36.28C32.3387 36.3533 32.3704 36.435 32.3853 36.5205C32.4003 36.606 32.3982 36.6937 32.3793 36.7784C32.3603 36.8631 32.3249 36.9432 32.2749 37.0142C32.2249 37.0852 32.1614 37.1456 32.0881 37.192C31.9393 37.283 31.761 37.3126 31.5908 37.2745C31.4206 37.2365 31.2719 37.1337 31.1761 36.988L25.2721 27.676C25.1436 27.4713 24.9672 27.3009 24.7581 27.1797C24.5491 27.0584 24.3136 26.9899 24.0721 26.98C23.8187 26.9802 23.5695 27.044 23.3472 27.1656C23.1249 27.2872 22.9368 27.4628 22.8001 27.676L16.8001 37.036C16.7591 37.1195 16.7009 37.1933 16.6294 37.2527C16.5578 37.3121 16.4745 37.3557 16.385 37.3807C16.2954 37.4057 16.2016 37.4114 16.1097 37.3976C16.0177 37.3838 15.9297 37.3507 15.8515 37.3005C15.7732 37.2503 15.7064 37.1841 15.6555 37.1064C15.6046 37.0286 15.5707 36.9409 15.556 36.8491C15.5413 36.7573 15.5462 36.6634 15.5704 36.5736C15.5945 36.4838 15.6373 36.4001 15.6961 36.3281L22.0921 26.236C22.2488 25.9972 22.3322 25.7177 22.3321 25.432V21.7121C22.3325 21.3264 22.1844 20.9554 21.9185 20.6761C21.6526 20.3967 21.2893 20.2306 20.9041 20.2121C18.4727 20.0989 16.0491 19.8545 13.6441 19.4801C13.5578 19.468 13.475 19.4383 13.4007 19.3929C13.3264 19.3475 13.2622 19.2873 13.2121 19.2161C13.1317 19.1118 13.085 18.9856 13.0781 18.8542C13.0712 18.7228 13.1045 18.5924 13.1735 18.4803C13.2426 18.3683 13.3441 18.2799 13.4646 18.227C13.5851 18.1741 13.7189 18.1591 13.8481 18.1841C20.6374 19.2641 27.5548 19.2641 34.3441 18.1841C34.5168 18.1591 34.6926 18.2011 34.8353 18.3015C34.9781 18.4019 35.0771 18.553 35.1121 18.7241C35.1364 18.8971 35.0924 19.0728 34.9894 19.214C34.8863 19.3551 34.7323 19.4505 34.5601 19.4801Z" fill="black"/>
</svg>
