<svg width="48" height="49" viewBox="0 0 48 49" fill="none" xmlns="http://www.w3.org/2000/svg">
<g clip-path="url(#clip0_1_318)">
<path d="M42.0001 1.18019H6.00021C5.32889 1.17861 4.66383 1.30928 4.04301 1.56472C3.42219 1.82017 2.85776 2.19539 2.38196 2.66897C1.90614 3.14255 1.52828 3.7052 1.26992 4.32482C1.01156 4.94444 0.877778 5.60887 0.876203 6.28019V42.2802C0.869835 42.9559 0.997847 43.6263 1.2528 44.2522C1.50776 44.878 1.88456 45.4471 2.36132 45.9261C2.83808 46.405 3.40529 46.7845 4.02998 47.0424C4.65467 47.3002 5.32439 47.4313 6.00021 47.4282H42.0001C42.676 47.4313 43.3458 47.3002 43.9704 47.0424C44.5952 46.7845 45.1623 46.405 45.6391 45.9261C46.1158 45.4471 46.4927 44.878 46.7477 44.2522C47.0025 43.6263 47.1306 42.9559 47.1241 42.2802V6.28019C47.1226 5.60887 46.9888 4.94444 46.7305 4.32482C46.4721 3.7052 46.0943 3.14255 45.6185 2.66897C45.1427 2.19539 44.5782 1.82017 43.9573 1.56472C43.3365 1.30928 42.6715 1.17861 42.0001 1.18019ZM44.1241 42.2802C44.1306 42.562 44.0803 42.8422 43.9761 43.1041C43.872 43.3662 43.7161 43.6044 43.518 43.8049C43.3198 44.0053 43.0833 44.1639 42.8224 44.271C42.5617 44.3779 42.282 44.4315 42.0001 44.4282H6.00021C5.71833 44.4315 5.43867 44.3779 5.17791 44.271C4.91715 44.1639 4.68062 44.0053 4.48241 43.8049C4.2842 43.6044 4.12838 43.3662 4.02423 43.1041C3.92009 42.8422 3.86975 42.562 3.87621 42.2802V6.28019C3.87618 6.00238 3.93129 5.72734 4.03832 5.47097C4.14536 5.21461 4.30218 4.98203 4.49975 4.78672C4.6973 4.59139 4.93164 4.43722 5.18919 4.3331C5.44676 4.22899 5.72241 4.17701 6.00021 4.18019H42.0001C42.2779 4.17701 42.5537 4.22899 42.8112 4.3331C43.0688 4.43722 43.3031 4.59139 43.5006 4.78672C43.6982 4.98203 43.855 5.21461 43.9621 5.47097C44.0691 5.72734 44.1241 6.00238 44.1241 6.28019V42.2802Z" fill="#1D1C1D"/>
<path d="M34.884 16.8759H31.2L31.716 13.3958C31.7444 13.2004 31.7339 13.0014 31.6854 12.81C31.6368 12.6186 31.551 12.4386 31.4328 12.2804C31.1943 11.9608 30.8387 11.7491 30.444 11.6918C30.0494 11.6346 29.6481 11.7364 29.3285 11.9749C29.009 12.2135 28.7972 12.5692 28.74 12.9638L28.164 16.8759H22.476L22.98 13.3958C23.0207 13.1959 23.0201 12.9898 22.9784 12.79C22.9365 12.5903 22.8545 12.4012 22.7372 12.2343C22.6199 12.0674 22.4697 11.9261 22.2959 11.8192C22.122 11.7123 21.9282 11.642 21.7263 11.6126C21.5244 11.5832 21.3186 11.5953 21.1217 11.6481C20.9246 11.7009 20.7404 11.7934 20.5802 11.9199C20.4201 12.0464 20.2875 12.2042 20.1905 12.3837C20.0934 12.5632 20.034 12.7606 20.016 12.9638L19.44 16.8759H14.5439C14.1461 16.8759 13.7646 17.0339 13.4833 17.3151C13.202 17.5965 13.0439 17.978 13.0439 18.3759C13.0439 18.7737 13.202 19.1552 13.4833 19.4366C13.7646 19.7178 14.1461 19.8759 14.5439 19.8759H19.008L17.928 27.2679H13.1279C12.7301 27.2679 12.3486 27.4259 12.0673 27.7071C11.786 27.9885 11.6279 28.37 11.6279 28.7679C11.6279 29.1657 11.786 29.5472 12.0673 29.8286C12.3486 30.1098 12.7301 30.2679 13.1279 30.2679H17.496L16.8 35.2119C16.7402 35.5961 16.8318 35.9885 17.0556 36.3063C17.2796 36.6242 17.6181 36.8427 18 36.9159H18.228C18.587 36.9138 18.9333 36.7832 19.2041 36.5475C19.475 36.312 19.6523 35.9871 19.704 35.6319L20.52 30.2799H26.184L25.464 35.2239C25.4055 35.6168 25.5053 36.017 25.7415 36.3365C25.9778 36.656 26.331 36.8687 26.724 36.9279H26.952C27.311 36.9258 27.6573 36.7952 27.9281 36.5595C28.199 36.324 28.3763 35.9991 28.428 35.6439L29.22 30.2799H33.456C33.8538 30.2799 34.2353 30.1218 34.5167 29.8406C34.7979 29.5592 34.956 29.1777 34.956 28.7799C34.956 28.382 34.7979 28.0005 34.5167 27.7191C34.2353 27.4379 33.8538 27.2799 33.456 27.2799H29.652L30.744 19.8879H34.884C35.2818 19.8879 35.6633 19.7298 35.9447 19.4486C36.2259 19.1672 36.384 18.7857 36.384 18.3879C36.384 17.99 36.2259 17.6085 35.9447 17.3271C35.6633 17.0459 35.2818 16.8879 34.884 16.8879V16.8759ZM26.628 27.2679H20.952L22.032 19.8759H27.708L26.628 27.2679Z" fill="#1D1C1D"/>
</g>
<defs>
<clipPath id="clip0_1_318">
<rect width="48" height="48" fill="white" transform="translate(0 0.280029)"/>
</clipPath>
</defs>
</svg>
