<svg width="48" height="32" viewBox="0 0 48 32" fill="none" xmlns="http://www.w3.org/2000/svg">
<path d="M45.3844 2.07982C44.8688 1.7863 44.2856 1.63195 43.6924 1.63195C43.0991 1.63195 42.5159 1.7863 42.0004 2.07982L34.8004 6.27982V5.36782C34.8004 4.01523 34.2631 2.71801 33.3067 1.76158C32.3501 0.805152 31.0529 0.267822 29.7004 0.267822H6.00039C4.64778 0.267822 3.35058 0.805152 2.39414 1.76158C1.43771 2.71801 0.900391 4.01523 0.900391 5.36782V26.6198C0.900391 27.2895 1.03231 27.9528 1.2886 28.5716C1.5449 29.1903 1.92057 29.7525 2.39414 30.2261C2.86772 30.6996 3.42995 31.0754 4.0487 31.3316C4.66746 31.5879 5.33064 31.7198 6.00039 31.7198H29.6764C30.3481 31.7231 31.0139 31.5935 31.6354 31.3385C32.257 31.0836 32.822 30.7085 33.2981 30.2346C33.7742 29.7608 34.1521 29.1974 34.4099 28.5771C34.6676 27.9567 34.8004 27.2916 34.8004 26.6198V25.7078L42.0004 29.8598C42.5221 30.1608 43.1141 30.3182 43.7164 30.3158C44.315 30.3195 44.9036 30.162 45.4204 29.8598C45.9442 29.5631 46.3793 29.132 46.681 28.611C46.9826 28.0899 47.1398 27.4979 47.1364 26.8958V5.09182C47.1449 4.47808 46.9865 3.87357 46.6778 3.343C46.3693 2.81242 45.9221 2.37579 45.3844 2.07982ZM31.7764 7.95976V26.6198C31.7764 27.1767 31.5551 27.7109 31.1612 28.1048C30.7675 28.4985 30.2333 28.7198 29.6764 28.7198H6.00039C5.44343 28.7198 4.90929 28.4985 4.51547 28.1048C4.12164 27.7109 3.90039 27.1767 3.90039 26.6198V5.36782C3.90356 4.81296 4.1262 4.2819 4.5197 3.89065C4.91318 3.49942 5.44551 3.27982 6.00039 3.27982H29.6764C30.2333 3.27982 30.7675 3.50107 31.1612 3.8949C31.5551 4.28872 31.7764 4.82287 31.7764 5.37982V7.95976ZM44.1004 26.8958C44.1017 26.97 44.0822 27.0432 44.044 27.1068C44.0059 27.1704 43.9505 27.2222 43.8844 27.2558C43.8226 27.2981 43.7494 27.3207 43.6744 27.3207C43.5994 27.3207 43.5262 27.2981 43.4644 27.2558L34.8004 22.2398V9.74776L43.4884 4.73182C43.5502 4.68952 43.6234 4.66689 43.6984 4.66689C43.7734 4.66689 43.8466 4.68952 43.9084 4.73182C43.9745 4.76556 44.0299 4.8172 44.068 4.88085C44.1062 4.94451 44.1257 5.0176 44.1244 5.09182L44.1004 26.8958Z" fill="#1D1C1D"/>
<path d="M25.608 15.532C25.2419 15.4045 24.8403 15.4263 24.4901 15.5923C24.1397 15.7585 23.8689 16.0558 23.736 16.42C23.2955 17.6182 22.4994 18.6531 21.4544 19.3863C20.4095 20.1195 19.1654 20.5158 17.8889 20.5224C16.6124 20.5288 15.3642 20.1453 14.3118 19.4227C13.2594 18.7003 12.4528 17.6736 12 16.48C11.8473 16.1431 11.5737 15.8758 11.2333 15.7311C10.8928 15.5863 10.5105 15.5748 10.1619 15.6985C9.81334 15.8223 9.52392 16.0723 9.35097 16.3993C9.17802 16.7263 9.13414 17.1063 9.22801 17.464C9.86803 19.2492 11.0439 20.7931 12.5947 21.8845C14.1455 22.9761 15.9956 23.5618 17.892 23.5618C19.7885 23.5618 21.6386 22.9761 23.1894 21.8845C24.7401 20.7931 25.916 19.2492 26.556 17.464C26.6291 17.2755 26.6622 17.0739 26.6534 16.872C26.6447 16.6699 26.5941 16.4719 26.5052 16.2904C26.4161 16.1089 26.2904 15.9478 26.136 15.8173C25.9815 15.6868 25.8018 15.5896 25.608 15.532Z" fill="#1D1C1D"/>
<path d="M14.8442 14.6681C15.1926 14.6704 15.5338 14.5696 15.8248 14.3782C16.116 14.1869 16.344 13.9136 16.48 13.5929C16.6161 13.2722 16.654 12.9184 16.5892 12.5761C16.5244 12.2338 16.3597 11.9183 16.116 11.6695C15.8721 11.4206 15.5601 11.2496 15.2193 11.1779C14.8783 11.1062 14.5238 11.137 14.2004 11.2664C13.877 11.3959 13.5991 11.6183 13.4019 11.9054C13.2047 12.1927 13.0969 12.5317 13.0922 12.8801C13.0874 13.1132 13.1292 13.3448 13.215 13.5616C13.301 13.7783 13.4292 13.9757 13.5924 14.1422C13.7556 14.3087 13.9503 14.441 14.1653 14.5313C14.3802 14.6216 14.611 14.6681 14.8442 14.6681Z" fill="#1D1C1D"/>
<path d="M20.5561 14.6681C20.9044 14.6704 21.2456 14.5696 21.5368 14.3782C21.8279 14.1869 22.0558 13.9136 22.1918 13.5929C22.3279 13.2722 22.366 12.9184 22.3012 12.5761C22.2364 12.2338 22.0717 11.9183 21.8279 11.6695C21.584 11.4206 21.272 11.2496 20.9311 11.1779C20.5903 11.1062 20.2357 11.137 19.9123 11.2664C19.5889 11.3959 19.3111 11.6183 19.1138 11.9054C18.9166 12.1927 18.8089 12.5317 18.8041 12.8801C18.7993 13.1132 18.841 13.3448 18.9269 13.5616C19.0129 13.7783 19.1411 13.9757 19.3043 14.1422C19.4675 14.3087 19.6622 14.441 19.8772 14.5313C20.0921 14.6216 20.323 14.6681 20.5561 14.6681Z" fill="#1D1C1D"/>
</svg>
