<svg width="48" height="41" viewBox="0 0 48 41" fill="none" xmlns="http://www.w3.org/2000/svg">
<path d="M42.0004 8.57594H29.9164V5.38394C29.9164 4.03133 29.3791 2.73413 28.4227 1.77768C27.4661 0.821251 26.1689 0.283936 24.8164 0.283936H6.00039C4.64876 0.287101 3.35339 0.825435 2.39765 1.78119C1.4419 2.73693 0.903559 4.0323 0.900391 5.38394V21.3079C0.900391 22.6606 1.43771 23.9578 2.39414 24.9142C3.35058 25.8706 4.64778 26.4079 6.00039 26.4079H7.92039V30.5359C7.92003 30.8224 8.00105 31.103 8.154 31.3453C8.30697 31.5874 8.52558 31.7812 8.78439 31.9039C9.04644 32.0189 9.33507 32.0596 9.61868 32.0215C9.90228 31.9834 10.17 31.868 10.3924 31.6879L16.7044 26.4079H18.0844V29.5879C18.0844 30.9437 18.623 32.2439 19.5817 33.2027C20.5403 34.1614 21.8405 34.6999 23.1964 34.6999H31.2964L37.6084 39.9919C37.8826 40.2166 38.2259 40.3396 38.5804 40.3399C38.8004 40.3396 39.0176 40.2904 39.2164 40.1959C39.4733 40.0741 39.6907 39.8822 39.8435 39.6422C39.9964 39.4024 40.0784 39.1243 40.0804 38.8399V34.6999H42.0004C43.3529 34.6999 44.6501 34.1626 45.6067 33.2062C46.5631 32.2498 47.1004 30.9526 47.1004 29.5999V13.6759C47.0972 12.3244 46.5589 11.029 45.6031 10.0732C44.6474 9.11744 43.352 8.5791 42.0004 8.57594ZM16.1524 23.4079C15.8026 23.4139 15.4648 23.5363 15.1924 23.7559L10.9204 27.3559V24.9559C10.9204 24.5581 10.7624 24.1766 10.481 23.8952C10.1997 23.614 9.81821 23.4559 9.42039 23.4559H6.00039C5.44343 23.4559 4.90929 23.2346 4.51547 22.8409C4.12164 22.447 3.90039 21.9128 3.90039 21.3559V5.38394C3.90354 4.82795 4.1258 4.29564 4.51895 3.90249C4.9121 3.50934 5.4444 3.28709 6.00039 3.28394H24.8164C25.3733 3.28394 25.9075 3.50519 26.3012 3.89901C26.6951 4.29284 26.9164 4.82697 26.9164 5.38394V21.2959C26.9164 21.5732 26.8618 21.8479 26.7556 22.1042C26.6495 22.3604 26.4938 22.5932 26.2978 22.7893C26.1017 22.9855 25.8688 23.141 25.6126 23.2472C25.3564 23.3533 25.0817 23.4079 24.8044 23.4079H16.1524ZM44.1004 29.5999C44.1004 30.1568 43.8791 30.691 43.4852 31.0849C43.0915 31.4786 42.5573 31.6999 42.0004 31.6999H38.5804C38.1826 31.6999 37.801 31.858 37.5197 32.1392C37.2385 32.4206 37.0804 32.8021 37.0804 33.1999V35.5999L32.8084 31.9999C32.5411 31.7699 32.2009 31.6424 31.8484 31.6399H23.1964C22.6363 31.6399 22.099 31.4174 21.703 31.0213C21.3068 30.6253 21.0844 30.0881 21.0844 29.5279V26.4079H24.8164C26.1689 26.4079 27.4661 25.8706 28.4227 24.9142C29.3791 23.9578 29.9164 22.6606 29.9164 21.3079V11.5879H42.0004C42.5564 11.591 43.0886 11.8133 43.4818 12.2065C43.8749 12.5996 44.0972 13.132 44.1004 13.6879V29.5999Z" fill="#1D1C1D"/>
<path d="M9.16791 11.552C8.85388 11.559 8.54893 11.6586 8.29125 11.8383C8.03356 12.0179 7.83462 12.2696 7.71931 12.5618C7.60402 12.854 7.5775 13.1736 7.6431 13.4808C7.70868 13.788 7.86345 14.069 8.08803 14.2886C8.31259 14.5082 8.59698 14.6567 8.90556 14.7155C9.21412 14.7741 9.53316 14.7405 9.8227 14.6187C10.1122 14.4969 10.3594 14.2925 10.5332 14.0309C10.7071 13.7691 10.7998 13.4621 10.7999 13.148C10.8016 12.9348 10.7603 12.7236 10.6784 12.5268C10.5966 12.33 10.4758 12.1518 10.3235 12.0027C10.1711 11.8538 9.99021 11.7371 9.79164 11.6595C9.59308 11.5821 9.38094 11.5455 9.16791 11.552Z" fill="#1D1C1D"/>
<path d="M15.4439 11.5518C15.1287 11.5542 14.8213 11.6499 14.5605 11.8266C14.2996 12.0034 14.0969 12.2535 13.9779 12.5454C13.859 12.8371 13.8291 13.1577 13.892 13.4665C13.9549 13.7752 14.1079 14.0586 14.3315 14.2806C14.5552 14.5026 14.8396 14.6533 15.1488 14.7139C15.4581 14.7745 15.7784 14.7423 16.0694 14.6212C16.3602 14.5 16.6089 14.2954 16.7837 14.0332C16.9586 13.771 17.0519 13.4629 17.0519 13.1478C17.0519 12.9372 17.0102 12.7287 16.9292 12.5343C16.8483 12.3399 16.7297 12.1633 16.5801 12.015C16.4307 11.8666 16.2533 11.7493 16.0583 11.6698C15.8633 11.5903 15.6545 11.5503 15.4439 11.5518Z" fill="#1D1C1D"/>
<path d="M21.7323 14.7438C22.0479 14.7438 22.3566 14.6502 22.6189 14.4748C22.8814 14.2995 23.086 14.0502 23.2068 13.7586C23.3275 13.467 23.3592 13.146 23.2977 12.8364C23.236 12.5268 23.0841 12.2424 22.8609 12.0192C22.6377 11.796 22.3533 11.644 22.0437 11.5824C21.7341 11.5209 21.4131 11.5525 21.1215 11.6733C20.8299 11.794 20.5806 11.9986 20.4052 12.2611C20.2299 12.5235 20.1363 12.8322 20.1363 13.1478C20.1346 13.3578 20.1748 13.5661 20.2545 13.7604C20.3341 13.9548 20.4517 14.1313 20.6002 14.2798C20.7487 14.4283 20.9253 14.5459 21.1197 14.6256C21.3139 14.7052 21.5223 14.7454 21.7323 14.7438Z" fill="#1D1C1D"/>
</svg>
